<?xml version="1.0" standalone="no"?>
<!DOCTYPE svg PUBLIC "-//W3C//DTD SVG 20010904//EN"
 "http://www.w3.org/TR/2001/REC-SVG-20010904/DTD/svg10.dtd">
<svg version="1.0" xmlns="http://www.w3.org/2000/svg"
 width="340.000000pt" height="340.000000pt" viewBox="0 0 340.000000 340.000000"
 preserveAspectRatio="xMidYMid meet">
<metadata>
Created by potrace 1.14, written by Peter Selinger 2001-2017
</metadata>
<g transform="translate(0.000000,340.000000) scale(0.100000,-0.100000)"
fill="#000000" stroke="none">
<path d="M1289 3388 c-1 -7 -2 -73 -3 -146 -1 -151 3 -142 -89 -163 -48 -10
-56 -15 -52 -30 4 -11 -18 -68 -53 -141 -90 -187 -91 -195 -58 -296 19 -58 24
-60 32 -16 3 16 10 34 16 42 16 18 80 51 146 72 l54 18 -5 -24 c-2 -13 0 -24
5 -24 5 0 6 -5 2 -12 -4 -6 -6 -28 -6 -49 2 -43 14 -38 -170 -79 -98 -22 -107
-27 -88 -46 7 -7 0 -37 -24 -95 -42 -104 -48 -119 -53 -143 -2 -11 -7 -24 -12
-30 -21 -25 -61 -247 -63 -343 -2 -117 10 -154 60 -185 34 -21 36 -21 46 -4
49 84 173 139 284 127 9 -1 12 -27 10 -108 -3 -100 -5 -108 -23 -109 -11 -1
-49 -5 -85 -8 -177 -17 -241 -23 -272 -25 -20 -1 -25 -30 -5 -32 6 -1 19 -2
27 -3 10 -1 15 -13 16 -41 2 -105 32 -145 110 -145 48 0 55 -3 68 -27 22 -43
77 -91 120 -106 l39 -13 -1 -65 c0 -35 -1 -124 -1 -198 l-1 -134 -162 7 c-162
6 -162 6 -185 34 -12 15 -22 31 -23 35 0 5 -10 23 -22 39 -11 17 -25 49 -29
72 -4 22 -10 48 -14 57 -5 12 2 18 24 22 44 9 38 27 -8 27 -23 0 -44 6 -52 16
-7 8 -25 22 -40 30 -17 8 -45 44 -70 87 -23 39 -45 74 -48 77 -8 6 -29 41 -38
60 -4 8 -28 48 -55 88 -26 41 -48 75 -48 77 0 2 -20 36 -46 77 -42 69 -45 76
-40 128 3 30 5 63 6 73 0 10 11 22 25 27 14 5 25 14 25 19 0 10 -49 6 -109
-10 -19 -4 -38 -6 -43 -3 -5 4 -26 31 -46 62 -43 69 -56 52 -13 -17 31 -52 28
-61 -20 -61 -12 0 -23 -10 -29 -25 -5 -14 -28 -63 -50 -108 -86 -179 -100
-327 -42 -451 39 -84 87 -132 147 -147 38 -10 45 -15 40 -30 -5 -16 -1 -19 25
-19 36 0 48 -22 44 -79 -1 -20 2 -44 7 -53 9 -16 13 -17 44 -4 33 14 35 14 52
-9 10 -12 23 -31 29 -41 17 -29 70 -20 161 26 114 57 129 57 165 -3 26 -45 30
-75 7 -62 -17 11 -49 -6 -63 -33 -37 -73 -24 -119 76 -269 41 -60 72 -96 91
-104 25 -11 57 -46 107 -119 27 -39 181 -245 190 -254 12 -12 286 -18 1360
-31 228 -3 427 -8 443 -11 27 -6 34 1 42 43 2 10 4 18 5 18 1 0 3 23 6 50 3
28 10 76 17 109 l12 59 70 37 c68 37 70 39 89 98 14 44 27 64 44 72 23 10 24
14 18 68 -8 70 -10 150 -6 219 4 54 -10 83 -38 83 -8 0 -23 6 -31 14 -32 27
-147 58 -193 50 -24 -3 -49 -7 -55 -7 -7 0 -13 -3 -13 -6 0 -6 -40 -25 -78
-36 -13 -4 -44 2 -75 12 -28 10 -58 19 -64 19 -7 1 -33 2 -57 3 l-44 1 0 128
c-1 70 -2 182 -3 250 0 68 1 125 3 127 4 4 87 10 292 20 60 3 112 8 117 11 24
15 -9 23 -79 19 -42 -2 -136 -7 -207 -10 l-131 -6 2 28 c1 15 3 30 3 33 1 3
62 5 136 5 169 0 175 2 142 40 -52 64 -86 139 -94 210 -9 77 -9 346 0 385 3
14 6 30 6 36 1 7 11 14 24 18 34 9 2 25 -42 20 -20 -3 -69 -7 -108 -10 -70 -6
-73 -5 -73 16 0 18 4 21 28 15 45 -9 95 -12 119 -6 22 6 21 8 -23 71 -62 87
-73 117 -79 203 -5 66 -3 73 18 89 22 17 21 17 -14 9 -21 -5 -41 -6 -45 -2 -5
3 -9 66 -9 140 0 86 -4 136 -11 138 -7 2 -11 -42 -12 -134 0 -76 -1 -141 -1
-144 -1 -8 -40 -19 -91 -25 -19 -2 -42 -6 -50 -9 -8 -2 -33 -7 -55 -10 -22 -2
-51 -7 -65 -10 -14 -3 -41 -7 -60 -10 -19 -3 -46 -7 -60 -10 -14 -3 -44 -7
-67 -10 -23 -2 -48 -6 -55 -7 -9 -2 -14 16 -16 68 l-3 71 53 -5 c44 -4 130
-26 231 -59 13 -4 4 14 -28 60 -70 101 -86 144 -87 239 -1 146 1 178 13 175 6
-1 14 4 16 11 3 7 -1 10 -9 7 -7 -2 -29 -7 -48 -10 -19 -3 -53 -9 -75 -15 -75
-18 -71 -25 -72 123 -1 187 -1 183 -15 169 -7 -7 -12 -61 -14 -154 -3 -173 -3
-173 -10 -166 -3 4 -20 2 -37 -3 -18 -5 -45 -12 -62 -15 -16 -3 -34 -7 -40 -8
-5 -2 -27 -6 -47 -11 -34 -6 -54 -25 -28 -25 6 0 -7 -17 -28 -38 -89 -89 -116
-219 -78 -380 8 -34 11 -63 8 -66 -3 -3 0 -6 7 -6 8 0 11 12 9 37 -3 34 1 40
46 74 57 43 108 60 191 62 l60 2 1 -72 c2 -59 -1 -73 -15 -77 -23 -7 -69 -15
-121 -21 -25 -3 -67 -10 -95 -15 -27 -5 -68 -12 -89 -15 -22 -3 -40 -7 -41 -8
0 -1 -19 -42 -42 -92 -52 -112 -75 -165 -103 -235 -12 -30 -27 -68 -34 -85
l-13 -30 -16 55 c-18 61 -14 229 10 455 2 28 5 58 4 68 0 20 21 31 72 36 4 1
7 6 7 12 0 13 -55 8 -155 -16 -38 -10 -82 -19 -97 -22 l-28 -4 0 70 0 70 28
-8 c38 -11 135 -53 147 -63 21 -18 24 -6 8 35 -9 23 -19 47 -23 52 -4 6 -22
52 -39 103 -27 79 -32 105 -29 174 1 48 7 86 15 93 20 21 5 24 -50 9 -28 -7
-53 -11 -56 -8 -3 3 -7 58 -8 122 -1 64 -2 127 -2 140 -1 23 -20 32 -22 10z
m1342 -1142 c0 -6 2 -19 4 -28 3 -15 -5 -18 -43 -19 -26 0 -56 -2 -67 -4 -34
-7 -125 -9 -130 -3 -3 3 -1 16 4 29 l10 24 7 -22 c8 -28 29 -29 71 -3 54 32
142 48 144 26z m-1231 -441 c99 -17 106 -21 125 -83 10 -31 22 -63 28 -70 14
-18 10 -20 -63 -27 -36 -3 -86 -8 -112 -11 l-48 -5 -1 55 c0 31 -1 74 -1 96 0
61 1 62 20 56 9 -3 33 -8 52 -11z m668 -180 c1 -47 -2 -85 -6 -86 -4 0 -18 -2
-32 -4 -14 -1 -72 -6 -130 -9 -154 -11 -193 -14 -209 -18 -10 -2 -14 10 -15
46 -1 42 2 49 19 52 11 2 25 11 32 20 22 30 198 83 274 84 l66 0 1 -85z m133
53 c5 -7 9 -20 9 -29 0 -9 7 -33 16 -54 8 -20 14 -39 12 -40 -2 -2 -27 -6 -56
-9 l-52 -4 0 78 0 79 32 -4 c17 -2 35 -10 39 -17z m-1752 -143 c13 -22 38 -65
56 -95 18 -30 44 -75 57 -100 14 -25 39 -69 56 -97 47 -79 12 -70 -96 23 -71
61 -107 149 -118 285 -6 81 -10 83 45 -16z m2179 -57 c-2 -21 -9 -32 -20 -34
-19 -2 -21 7 -12 44 10 35 36 28 32 -10z m-971 -26 c-32 -33 -34 -62 -7 -87
11 -10 20 -24 20 -31 0 -19 55 -31 114 -24 70 7 79 4 101 -36 23 -44 77 -92
110 -99 14 -3 35 -7 48 -10 19 -4 22 -10 20 -52 -1 -26 -2 -123 -3 -216 -1
-114 -5 -165 -12 -161 -6 4 -48 8 -94 10 -68 2 -87 6 -105 23 -13 12 -30 22
-38 22 -29 2 -295 9 -383 10 -49 0 -88 4 -89 7 -1 4 -2 96 -3 206 -3 195 -2
199 20 221 13 13 33 43 44 68 25 53 36 62 150 111 47 21 94 46 104 56 31 30
33 13 3 -18z m964 -41 c3 0 5 -116 4 -257 l-3 -255 -78 -78 -79 -77 -90 2
c-66 1 -95 -2 -113 -14 -23 -15 -107 -21 -119 -8 -4 4 -7 106 -8 227 l-2 220
43 30 c34 23 79 72 100 107 1 2 57 23 125 46 68 24 135 48 149 53 21 9 45 10
71 4z"/>
</g>
</svg>
