<?xml version="1.0" standalone="no"?>
<!DOCTYPE svg PUBLIC "-//W3C//DTD SVG 20010904//EN"
 "http://www.w3.org/TR/2001/REC-SVG-20010904/DTD/svg10.dtd">
<svg version="1.0" xmlns="http://www.w3.org/2000/svg"
 width="327.000000pt" height="340.000000pt" viewBox="0 0 327.000000 340.000000"
 preserveAspectRatio="xMidYMid meet">

<g transform="translate(0.000000,340.000000) scale(0.100000,-0.100000)"
fill="#000000" stroke="none">
<path d="M1220 3256 c0 -158 0 -159 -64 -170 -44 -8 -91 -25 -85 -30 2 -2 72
13 154 35 83 21 130 36 105 33 -94 -13 -85 -27 -88 134 -3 190 -22 189 -22 -2z"/>
<path d="M2019 3233 c0 -65 -3 -136 -7 -158 l-7 -40 -113 -24 c-61 -14 -112
-29 -112 -34 0 -5 6 -7 13 -5 6 3 113 27 236 54 124 27 216 50 204 52 -11 2
-50 -4 -87 -12 -115 -27 -106 -38 -106 134 0 93 -4 150 -10 150 -6 0 -10 -46
-11 -117z"/>
<path d="M2577 2880 c-3 -8 -8 -77 -9 -153 -3 -152 -8 -144 67 -127 l40 9 -37
-2 c-28 -2 -38 1 -39 13 -1 8 -4 74 -8 145 -4 72 -10 123 -14 115z"/>
<path d="M1208 2653 l-3 -77 -130 -28 c-132 -29 -143 -33 -132 -44 8 -8 544
104 572 119 39 21 -9 18 -129 -8 -65 -14 -122 -25 -127 -25 -5 0 -9 32 -9 70
0 63 -2 70 -20 70 -17 0 -19 -8 -22 -77z"/>
<path d="M2008 2583 l-3 -78 -180 -29 c-178 -28 -193 -31 -183 -41 7 -7 767
114 789 125 10 6 28 10 40 10 12 0 20 3 17 6 -5 5 -347 -46 -415 -61 -22 -5
-23 -3 -23 70 0 68 -2 75 -20 75 -17 0 -19 -8 -22 -77z"/>
<path d="M2513 2583 c9 -2 23 -2 30 0 6 3 -1 5 -18 5 -16 0 -22 -2 -12 -5z"/>
<path d="M2568 2232 c-3 -26 -7 -27 -73 -35 -38 -4 -94 -10 -122 -13 -29 -3
-53 -10 -53 -16 0 -5 12 -7 28 -4 15 3 128 13 252 22 124 9 230 21 235 27 6 6
-34 7 -112 2 -118 -6 -123 -6 -123 13 0 32 -28 36 -32 4z"/>
<path d="M150 1948 c0 -7 12 -31 25 -53 33 -52 31 -63 -7 -67 -17 -2 -33 -8
-35 -14 -2 -7 36 -5 114 8 137 22 146 25 139 37 -3 5 -37 3 -78 -5 -40 -8 -73
-14 -74 -14 -1 0 -18 27 -38 60 -38 61 -46 70 -46 48z"/>
<path d="M1200 1720 c0 -80 -4 -112 -12 -115 -7 -2 -94 -11 -193 -20 -167 -14
-210 -24 -191 -42 6 -6 712 49 809 63 23 4 37 11 37 20 0 17 -69 19 -170 5
-36 -5 -100 -12 -142 -16 l-78 -7 0 105 c0 100 -1 105 -22 111 -13 3 -26 6
-30 6 -5 0 -8 -50 -8 -110z"/>
<path d="M2000 1625 c0 -100 22 -89 -209 -105 -157 -10 -206 -19 -183 -34 6
-3 210 8 454 24 243 17 451 29 461 26 36 -9 66 21 38 38 -9 6 -360 -18 -453
-30 l-48 -7 0 81 c0 64 -3 81 -16 86 -40 16 -44 9 -44 -79z"/>
<path d="M330 1650 c0 -14 57 -124 127 -247 101 -177 132 -224 155 -234 16 -6
30 -10 32 -8 4 4 -292 491 -307 505 -4 4 -7 -3 -7 -16z"/>
<path d="M2558 1483 c-3 -32 -7 -39 -28 -41 -43 -6 -47 -22 -6 -22 l39 0 -7
-262 -7 -263 -79 -79 -80 -79 -88 7 c-74 6 -91 5 -101 -8 -9 -11 -31 -16 -71
-16 l-57 0 -7 61 c-3 34 -6 138 -6 232 0 150 -2 168 -16 163 -9 -3 -24 -6 -35
-6 -18 0 -19 -10 -19 -221 0 -205 -1 -220 -17 -215 -10 2 -54 7 -98 11 -61 5
-85 12 -102 28 -22 19 -37 21 -262 25 l-239 5 -6 36 c-3 20 -6 112 -6 204 l0
168 -32 -3 -33 -3 -3 -197 -2 -198 -98 1 c-53 1 -128 4 -166 8 l-70 6 -44 72
c-42 68 -45 71 -68 61 l-24 -11 30 -53 c31 -55 38 -80 19 -69 -19 12 -54 -4
-72 -34 -31 -53 -23 -108 32 -199 62 -104 106 -159 141 -177 16 -8 84 -91 159
-194 l131 -179 112 -6 c62 -3 464 -11 893 -17 429 -5 790 -12 801 -15 12 -3
24 -1 28 4 3 5 12 54 21 108 8 55 17 114 20 131 5 29 16 38 81 74 74 41 75 41
91 101 12 44 23 62 39 68 21 8 22 11 18 177 l-4 168 -30 16 c-16 9 -35 21 -42
27 -7 5 -44 20 -83 31 -81 25 -122 22 -203 -16 -31 -15 -62 -23 -75 -20 -12 3
-47 13 -77 21 -30 9 -74 16 -97 16 l-43 0 0 254 0 254 83 6 c45 3 137 9 205
13 73 5 121 12 120 18 -3 11 -14 12 -240 1 l-167 -8 -3 34 c-2 25 -8 34 -25
36 -19 3 -22 -2 -25 -35z m292 -723 c24 -24 26 -63 4 -84 -19 -20 -29 -20 -48
0 -26 25 -31 62 -11 84 23 25 30 25 55 0z m113 8 c25 -19 32 -71 12 -91 -20
-20 -26 -21 -48 -4 -25 18 -32 70 -12 90 20 20 26 21 48 5z m-1443 -107 c24
-46 0 -111 -41 -111 -21 0 -49 36 -49 65 0 54 67 88 90 46z m166 1 c41 -27 40
-105 -2 -124 -53 -25 -89 67 -44 112 22 22 29 24 46 12z m166 -9 c24 -22 24
-77 -2 -103 -26 -26 -34 -25 -60 7 -16 20 -20 36 -16 57 11 55 43 71 78 39z
m155 -1 c23 -15 34 -62 21 -90 -20 -40 -43 -50 -67 -28 -49 44 -6 151 46 118z
m157 -7 c35 -35 26 -107 -16 -121 -48 -15 -80 76 -41 118 20 22 37 23 57 3z
m530 -21 c34 -33 9 -99 -34 -92 -33 4 -47 50 -26 83 19 29 38 32 60 9z m125 2
c17 -20 10 -77 -11 -90 -26 -16 -52 4 -56 43 -4 36 12 61 38 61 10 0 23 -6 29
-14z m121 -22 c14 -37 -7 -79 -40 -79 -32 0 -49 42 -32 80 16 35 59 35 72 -1z"/>
<path d="M2807 753 c-12 -12 -7 -50 8 -63 19 -15 35 -5 35 24 0 32 -27 56 -43
39z"/>
<path d="M2927 753 c-12 -12 -7 -50 8 -63 27 -22 45 12 29 54 -6 16 -26 21
-37 9z"/>
<path d="M1460 639 c-16 -28 2 -72 28 -67 24 5 25 81 0 86 -9 2 -22 -6 -28
-19z"/>
<path d="M1647 633 c-13 -12 -7 -60 8 -73 29 -24 56 20 39 64 -6 16 -35 22
-47 9z"/>
<path d="M1800 626 c-13 -36 -2 -68 24 -64 25 4 35 51 15 74 -17 20 -28 17
-39 -10z"/>
<path d="M1972 628 c-16 -16 -15 -63 2 -77 11 -9 18 -8 30 4 20 21 20 49 0 69
-19 19 -17 19 -32 4z"/>
<path d="M2122 628 c-17 -17 -15 -63 4 -79 14 -11 18 -10 30 6 18 25 18 50 -2
69 -19 19 -17 19 -32 4z"/>
<path d="M2644 595 c-4 -18 -1 -32 10 -43 21 -21 39 -4 34 34 -4 39 -35 45
-44 9z"/>
<path d="M2777 613 c-11 -10 -8 -61 4 -69 19 -11 42 22 35 50 -6 25 -25 34
-39 19z"/>
<path d="M2891 606 c-19 -23 -10 -61 14 -61 14 0 21 8 23 26 4 33 -20 56 -37
35z"/>
<path d="M425 1089 c-187 -9 -215 -13 -199 -29 8 -8 541 6 572 15 6 3 12 9 12
15 0 12 -115 11 -385 -1z"/>
</g>
</svg>
